<svg id="logo" xmlns="http://www.w3.org/2000/svg" xmlns:xlink="http://www.w3.org/1999/xlink" width="64" height="64" viewBox="0 0 158 158">
  <defs>
    <clipPath id="clip-path">
      <rect id="Rectángulo_3" data-name="Rectángulo 3" width="158" height="158"/>
    </clipPath>
  </defs>
  <g id="custom_1" data-name="custom – 1" clip-path="url(#clip-path)">
    <g id="Letter" transform="translate(16.694 6.477)">
      <path id="Trazado_4" data-name="Trazado 4" d="M331.614,327.483l3.444,17.4,33.692-8.713s-2.04-6.312-3.88-14.582-3.478-18.5-3.478-18.5-5.1,10.764-13.1,16.945A32.151,32.151,0,0,1,331.614,327.483Z" transform="translate(-243.518 -213.788)" fill="#002496"/>
      <path id="Trazado_3" data-name="Trazado 3" d="M138.219,107.515A44.166,44.166,0,0,1,128.738,94.8c-3.59-7.541-4.036-11.629-5.143-17.627a50.745,50.745,0,0,1-.714-16.882,39.031,39.031,0,0,1,3.755-13.012,98.416,98.416,0,0,1,35.076-19.936c21.879-8.18,49.7-6.749,49.7-6.749S213.976,63.3,215.7,85.574c1.425,18.853,2.6,24.113,2.6,24.113s-5.124,11.036-13.16,17.153a38.031,38.031,0,0,1-16.5,7.636l-1.333-7.252-.8.42a27.208,27.208,0,0,1-.878,3.863,20.8,20.8,0,0,1-1.451,3.352,60,60,0,0,1-10.1-1.431,53.248,53.248,0,0,1-9.253-3.34,14.7,14.7,0,0,1-16.663.382C139.329,123.949,138.219,107.515,138.219,107.515Z" transform="translate(-100.478 -20.496)" fill="#fff"/>
      <path id="Trazado_2" data-name="Trazado 2" d="M84.364-65.84s2.53,30.107,2.18,44.518c-.7,13.3-7.823,35.421-23.093,35.421S43.383-9.38,46.927-30.638c2.414-7.793,2.239-11.734,10.034-22.2C67.239-66.6,84.364-65.84,84.364-65.84Z" transform="translate(-8.217 98.603)" fill="#f0022e"/>
      <path id="Trazado_1" data-name="Trazado 1" d="M90.7,165.038s-10.022-12.1-13.162-27.509c-4.074-17.11,1.6-32.837,1.6-32.837s-24.155,19.552-26.121,54.573c-1.079,19.655,1.394,53.427,32.641,63.843,39.426,6.213,50.934-30.788,50.934-30.788A55.512,55.512,0,0,1,126.818,191a61.364,61.364,0,0,1-9.585-3.3,15.327,15.327,0,0,1-15.885.9C91.265,181.641,90.7,165.038,90.7,165.038Z" transform="translate(-52.828 -78.086)" fill="#002496"/>
    </g>
    <path id="Trazado_5" data-name="Trazado 5" d="M136.8,135.446s-14.325,37.69-51.976,29.957c-32.574-13.734-34.8-49.85-28.871-79.055A88.438,88.438,0,0,1,79.251,47.6s16.94-14.066,38.141-20.657,46.669-5.709,46.669-5.709,1.311,29.367,2.979,51.615,3.691,37.38,3.691,37.38,1.489,9.629,3.347,17.9,4.086,15.195,4.086,15.195l-33.418,8.432-4.511-24.49-1,.864a34.787,34.787,0,0,1-1,3.9,26.638,26.638,0,0,1-1.436,3.423Z" transform="translate(-36.508 -14.494)" fill="none" stroke="#acacac" stroke-width="1"/>
  </g>
</svg>
